<?xml version="1.0" standalone="no"?>
<!DOCTYPE svg PUBLIC "-//W3C//DTD SVG 20010904//EN"
 "http://www.w3.org/TR/2001/REC-SVG-20010904/DTD/svg10.dtd">
<svg version="1.0" xmlns="http://www.w3.org/2000/svg"
 width="121.000000pt" height="106.000000pt" viewBox="0 0 121.000000 106.000000"
 preserveAspectRatio="xMidYMid meet">
<metadata>
Created by potrace 1.10, written by Peter Selinger 2001-2011
</metadata>
<g transform="translate(0.000000,106.000000) scale(0.100000,-0.100000)"
fill="#2b2f7f" stroke="none">
<path d="M636 1001 c-11 -21 -25 -31 -52 -36 l-36 -6 24 -27 c21 -22 24 -34
20 -66 l-4 -39 30 19 c26 15 35 16 57 6 40 -19 47 -15 40 19 -6 25 -2 36 20
59 l27 29 -36 6 c-27 5 -41 15 -52 36 -8 16 -17 29 -19 29 -2 0 -11 -13 -19
-29z m66 -51 c20 0 20 -1 3 -20 -10 -11 -15 -28 -12 -40 6 -22 0 -25 -23 -10
-10 6 -22 4 -38 -6 -24 -16 -24 -15 -17 14 4 22 2 31 -9 35 -23 9 -20 27 4 27
10 0 24 9 31 21 l11 21 14 -21 c9 -12 25 -21 36 -21z"/>
<path d="M856 961 c-11 -21 -25 -31 -52 -36 l-36 -6 24 -27 c21 -22 24 -34 20
-66 l-4 -39 30 19 c26 15 35 16 57 6 41 -19 48 -15 41 20 -5 26 -1 37 20 59
l26 28 -36 6 c-27 5 -41 15 -52 36 -8 16 -17 29 -19 29 -2 0 -11 -13 -19 -29z
m66 -51 c20 0 20 -1 5 -18 -20 -22 -22 -43 -5 -60 17 -17 -3 -14 -26 3 -17 13
-23 13 -44 -1 -24 -16 -25 -16 -18 9 4 16 1 29 -9 37 -21 17 -19 30 5 30 10 0
24 9 31 21 l11 21 14 -21 c9 -12 25 -21 36 -21z"/>
<path d="M436 941 c-11 -21 -25 -31 -52 -36 l-36 -6 24 -27 c21 -22 24 -34 20
-66 l-5 -39 34 21 c30 18 36 19 53 6 34 -24 48 -18 41 17 -6 24 -2 36 16 55
20 21 21 26 9 34 -8 5 -23 10 -32 10 -10 0 -24 14 -33 30 -9 17 -18 30 -20 30
-2 0 -11 -13 -19 -29z m62 -51 c24 0 25 -1 7 -20 -10 -11 -15 -28 -12 -40 6
-22 0 -25 -23 -10 -10 6 -23 4 -39 -7 -23 -15 -24 -15 -17 10 4 16 1 29 -9 37
-21 17 -19 30 5 30 10 0 25 10 31 22 l12 23 10 -23 c7 -14 19 -22 35 -22z"/>
<path d="M622 800 c-52 -22 -58 -113 -9 -139 21 -11 21 -11 1 -6 -13 3 -31 -2
-44 -13 -22 -18 -24 -18 -41 -1 -10 10 -24 17 -31 15 -7 -1 -9 -1 -5 2 5 2 13
15 18 29 18 48 -36 97 -81 73 -26 -14 -40 -48 -30 -75 5 -14 1 -26 -16 -42
-27 -25 -39 -63 -30 -98 6 -24 10 -25 81 -25 58 0 75 -3 75 -14 0 -37 28 -46
145 -46 117 0 145 9 145 46 0 11 16 14 69 14 81 0 97 12 87 65 -8 39 -38 76
-58 71 -7 -1 -9 -1 -5 2 5 2 13 15 18 29 11 30 -8 68 -40 78 -43 13 -89 -40
-69 -78 7 -14 4 -24 -15 -41 -24 -22 -25 -22 -47 -4 -13 11 -31 16 -44 13 -20
-5 -20 -5 1 6 43 22 49 95 11 126 -20 17 -60 23 -86 13z m69 -41 c21 -21 19
-56 -5 -71 -21 -14 -55 -8 -70 13 -16 23 -12 47 12 67 22 17 39 15 63 -9z
m-212 -33 c25 -30 -16 -67 -44 -40 -11 12 -12 20 -5 35 12 22 33 25 49 5z
m400 0 c25 -30 -16 -67 -44 -40 -11 12 -12 20 -5 35 12 22 33 25 49 5z m-375
-105 c10 -11 16 -30 14 -43 -3 -21 -8 -23 -70 -26 -66 -3 -68 -2 -68 21 0 57
86 90 124 48z m232 -17 c27 -28 34 -44 34 -75 l0 -40 -112 3 -113 3 -3 30 c-3
36 29 92 61 105 12 5 39 9 61 9 32 1 45 -5 72 -35z m173 10 c12 -15 21 -35 21
-45 0 -17 -8 -19 -63 -19 -58 0 -65 2 -75 24 -26 58 76 93 117 40z"/>
<path d="M430 430 c-14 -4 -52 -19 -84 -34 -56 -25 -60 -25 -78 -9 -15 13 -26
15 -55 7 -61 -15 -61 -26 4 -174 l59 -135 33 2 c39 1 73 30 66 53 -10 32 20
28 139 -20 71 -28 130 -46 147 -44 31 4 376 161 385 175 13 22 6 72 -14 91
-30 31 -69 25 -193 -26 -59 -25 -110 -46 -113 -46 -2 0 -2 9 1 20 8 31 -21 65
-74 85 -26 9 -68 28 -92 41 -44 24 -85 29 -131 14z m167 -72 c92 -43 101 -51
84 -76 -6 -10 -21 -8 -74 12 -58 22 -66 23 -72 9 -8 -22 -1 -27 87 -56 88 -29
87 -29 223 28 127 53 142 56 160 39 8 -9 15 -20 15 -25 0 -9 -118 -68 -293
-146 l-79 -35 -129 53 c-97 38 -133 49 -142 40 -6 -6 -14 -11 -17 -11 -8 0
-65 139 -59 143 26 18 151 65 174 66 17 1 72 -18 122 -41z m-351 0 c4 -7 4
-10 -1 -6 -4 4 -16 3 -26 -3 -12 -6 -19 -6 -19 0 0 5 8 12 18 14 9 3 18 5 19
6 1 0 5 -5 9 -11z m-6 -28 c0 -5 -4 -10 -10 -10 -5 0 -10 5 -10 10 0 6 5 10
10 10 6 0 10 -4 10 -10z m63 -117 c30 -70 33 -83 19 -88 -20 -7 -23 -3 -57 80
-15 39 -32 75 -37 82 -6 7 -3 13 9 15 25 6 26 4 66 -89z"/>
</g>
</svg>
