<?xml version="1.0" standalone="no"?>
<!DOCTYPE svg PUBLIC "-//W3C//DTD SVG 20010904//EN"
 "http://www.w3.org/TR/2001/REC-SVG-20010904/DTD/svg10.dtd">
<svg version="1.0" xmlns="http://www.w3.org/2000/svg"
 width="140.000000pt" height="126.000000pt" viewBox="0 0 140.000000 126.000000"
 preserveAspectRatio="xMidYMid meet">
<metadata>
Created by potrace 1.10, written by Peter Selinger 2001-2011
</metadata>
<g transform="translate(0.000000,126.000000) scale(0.100000,-0.100000)"
fill="#2b2f7f" stroke="none">
<path d="M348 1253 c193 -2 511 -2 705 0 193 1 35 2 -353 2 -388 0 -546 -1
-352 -2z"/>
<path d="M955 1065 l-25 -24 0 -256 0 -256 25 -24 c23 -24 29 -25 157 -25 89
1 138 5 149 13 36 27 39 52 39 292 0 240 -3 265 -39 292 -11 8 -60 12 -149 13
-128 0 -134 -1 -157 -25z m299 -21 c24 -23 24 -478 0 -512 -14 -21 -22 -22
-139 -22 -99 0 -127 3 -139 16 -14 13 -16 51 -16 263 0 179 3 250 12 259 8 8
54 12 139 12 103 0 131 -3 143 -16z"/>
<path d="M1090 990 c0 -5 14 -10 30 -10 17 0 30 5 30 10 0 6 -13 10 -30 10
-16 0 -30 -4 -30 -10z"/>
<path d="M1105 859 c-4 -5 -17 -14 -29 -18 -30 -12 -53 -57 -40 -79 6 -8 17
-18 25 -20 10 -4 9 1 -4 16 -18 19 -18 22 -1 47 9 14 22 24 28 22 6 -2 18 5
27 16 18 23 46 18 56 -10 4 -10 12 -22 20 -26 15 -9 16 -17 4 -36 -8 -12 -13
-11 -28 8 l-18 23 -20 -22 c-13 -14 -14 -19 -4 -15 12 4 14 -1 11 -30 -3 -21
0 -35 7 -35 6 0 11 16 11 36 0 21 4 33 10 29 6 -4 8 -11 5 -16 -9 -13 19 -11
33 3 17 17 15 53 -3 68 -8 7 -15 18 -15 25 0 23 -63 35 -75 14z"/>
<path d="M1080 766 c0 -22 -5 -36 -12 -36 -8 0 -6 -6 5 -17 16 -16 18 -16 35
1 16 18 16 19 0 13 -15 -5 -17 -1 -13 28 2 19 0 37 -5 40 -6 4 -10 -9 -10 -29z"/>
<path d="M1100 550 c0 -5 7 -10 15 -10 8 0 15 5 15 10 0 6 -7 10 -15 10 -8 0
-15 -4 -15 -10z"/>
<path d="M597 999 c-35 -9 -55 -26 -78 -64 -16 -25 -24 -29 -57 -26 -34 2 -43
-2 -70 -34 -18 -19 -32 -42 -32 -49 0 -7 -9 -21 -20 -31 -30 -27 -42 -81 -26
-119 16 -38 34 -54 75 -66 26 -7 31 -6 31 9 0 10 -12 20 -32 26 -62 19 -73
100 -19 133 15 10 25 24 23 33 -5 28 36 69 72 69 17 0 37 -5 43 -11 8 -8 14
-1 23 25 18 56 55 79 115 73 41 -4 54 -10 77 -38 16 -19 28 -45 28 -61 0 -22
6 -31 27 -39 49 -18 63 -38 63 -89 0 -38 -5 -53 -26 -74 -15 -14 -33 -26 -40
-26 -8 0 -14 -7 -14 -15 0 -10 -11 -16 -32 -16 -32 -2 -32 -2 -4 -6 39 -6 80
13 116 54 41 46 43 117 5 162 -14 16 -35 33 -45 36 -12 4 -20 15 -20 28 0 25
-36 79 -64 97 -30 19 -86 28 -119 19z"/>
<path d="M213 963 c-42 -3 -56 -9 -73 -30 -19 -25 -20 -39 -20 -330 l0 -305
29 -29 29 -29 176 0 c167 0 176 -1 176 -19 0 -11 -4 -31 -10 -45 -8 -23 -15
-26 -60 -26 -43 0 -50 -3 -50 -20 0 -19 7 -20 218 -20 120 0 221 3 225 6 15
16 -8 34 -43 34 -40 0 -50 14 -50 68 0 22 0 22 176 22 l176 0 29 29 c24 24 29
38 29 75 0 39 -3 46 -20 46 -17 0 -20 -7 -20 -39 0 -74 23 -71 -489 -71 -342
0 -460 3 -469 12 -9 9 -12 90 -12 304 0 161 3 299 6 308 5 12 20 16 60 16 51
0 54 1 54 25 0 14 -3 24 -7 23 -5 -1 -31 -3 -60 -5z m507 -745 c0 -13 3 -33 6
-45 6 -23 5 -23 -84 -23 l-90 0 8 37 c5 20 7 41 4 45 -3 4 31 8 75 8 77 0 81
-1 81 -22z"/>
<path d="M612 727 c-23 -23 -42 -46 -42 -50 0 -15 25 -6 51 19 l27 26 -2 -124
c-1 -103 1 -123 14 -123 13 0 15 20 13 124 l-2 124 27 -27 c27 -25 52 -34 52
-19 0 9 -82 93 -90 93 -3 0 -25 -19 -48 -43z"/>
<path d="M474 746 c-3 -9 -5 -63 -2 -121 2 -58 1 -105 -3 -105 -3 0 -16 11
-29 25 -16 17 -27 22 -34 15 -7 -7 4 -25 37 -58 l47 -47 47 47 c39 39 45 50
34 60 -10 11 -17 8 -36 -14 -13 -16 -27 -28 -30 -28 -3 0 -4 53 -3 117 1 82
-2 118 -10 121 -7 2 -15 -4 -18 -12z"/>
<path d="M553 603 c15 -2 37 -2 50 0 12 2 0 4 -28 4 -27 0 -38 -2 -22 -4z"/>
<path d="M590 343 c0 -9 16 -13 45 -13 30 0 45 4 45 13 0 8 -15 12 -45 12 -29
0 -45 -4 -45 -12z"/>
</g>
</svg>
