<?xml version="1.0" standalone="no"?>
<!DOCTYPE svg PUBLIC "-//W3C//DTD SVG 20010904//EN"
 "http://www.w3.org/TR/2001/REC-SVG-20010904/DTD/svg10.dtd">
<svg version="1.0" xmlns="http://www.w3.org/2000/svg"
 width="146.000000pt" height="126.000000pt" viewBox="0 0 146.000000 126.000000"
 preserveAspectRatio="xMidYMid meet">
<metadata>
Created by potrace 1.10, written by Peter Selinger 2001-2011
</metadata>
<g transform="translate(0.000000,126.000000) scale(0.100000,-0.100000)"
fill="#2b2f7f" stroke="none">
<path d="M447 1160 c-26 -23 -44 -30 -75 -30 -23 0 -45 -6 -52 -15 -9 -11 -32
-15 -82 -15 -60 0 -72 -3 -93 -25 l-25 -24 0 -441 0 -441 25 -24 24 -25 574 0
c432 0 576 3 585 12 17 17 17 319 0 336 -7 7 -38 12 -70 12 l-58 0 0 158 c0
110 -4 162 -12 170 -8 8 -63 12 -180 12 l-168 0 0 115 c0 110 -1 117 -25 140
-20 21 -34 25 -83 25 -44 0 -61 4 -66 15 -4 10 -20 15 -53 15 -41 0 -52 4 -75
30 -14 17 -33 30 -42 30 -8 0 -31 -13 -49 -30z m68 -50 c0 -18 -6 -26 -23 -28
-24 -4 -38 18 -28 44 3 9 15 14 28 12 17 -2 23 -10 23 -28z m-79 -27 c17 -17
16 -18 -25 -21 -47 -4 -71 2 -71 17 0 8 16 13 67 20 6 0 19 -7 29 -16z m185 7
c10 0 19 -7 19 -15 0 -11 -12 -15 -50 -15 -27 0 -50 4 -50 10 0 13 33 30 48
25 8 -3 22 -5 33 -5z m-306 -50 c6 -19 15 -20 177 -20 161 0 170 1 175 20 4
17 14 20 57 20 29 0 57 -5 64 -12 9 -9 12 -87 12 -290 l0 -278 -108 0 c-71 0
-112 -4 -120 -12 -8 -8 -12 -58 -12 -160 l0 -148 -188 0 c-133 0 -192 4 -200
12 -17 17 -17 859 0 876 7 7 39 12 74 12 54 0 64 -3 69 -20z m605 -324 c0 -36
5 -68 10 -71 6 -3 24 3 40 15 l30 22 34 -21 c18 -11 36 -18 39 -14 4 3 7 35 7
70 l0 63 40 0 40 0 0 -150 0 -150 -160 0 -160 0 0 150 0 150 40 0 40 0 0 -64z
m125 24 c1 -42 -3 -48 -23 -28 -9 9 -18 9 -37 0 -24 -11 -25 -11 -25 28 l0 40
43 0 42 0 0 -40z m147 -292 c-7 -7 -12 -27 -12 -45 0 -30 -2 -32 -19 -22 -10
7 -27 9 -37 5 -27 -10 -27 -10 -28 24 -1 28 1 30 36 30 21 0 43 6 50 14 7 8
15 12 17 10 3 -2 -1 -10 -7 -16z m-369 -5 c-7 -2 -13 -18 -13 -34 0 -26 -3
-29 -25 -23 -15 4 -32 1 -40 -6 -13 -11 -15 -7 -15 29 l0 41 53 -1 c28 0 46
-3 40 -6z m-133 -62 c0 -67 13 -79 51 -50 30 23 35 23 66 -1 14 -11 29 -17 34
-14 5 3 9 32 9 65 l0 59 45 0 45 0 0 -140 0 -140 -170 0 -170 0 0 140 0 140
45 0 45 0 0 -59z m370 1 c0 -32 3 -62 7 -65 3 -4 21 3 40 14 31 20 35 20 58 5
45 -30 55 -22 55 44 l0 60 40 0 40 0 0 -140 0 -140 -155 0 c-136 0 -155 -2
-165 -18 -11 -16 -11 -16 -6 1 3 10 6 81 6 158 l0 139 40 0 40 0 0 -58z"/>
<path d="M264 879 c-15 -25 21 -29 222 -27 190 3 209 5 212 21 3 16 -12 17
-212 17 -144 0 -217 -4 -222 -11z"/>
<path d="M265 770 c-16 -26 14 -30 221 -30 200 0 215 1 212 18 -3 15 -23 17
-215 20 -136 1 -214 -1 -218 -8z"/>
<path d="M265 650 c-16 -26 14 -30 221 -30 207 0 214 1 214 20 0 19 -7 20
-214 20 -133 0 -217 -4 -221 -10z"/>
</g>
</svg>
