<?xml version="1.0" standalone="no"?>
<!DOCTYPE svg PUBLIC "-//W3C//DTD SVG 20010904//EN"
 "http://www.w3.org/TR/2001/REC-SVG-20010904/DTD/svg10.dtd">
<svg version="1.0" xmlns="http://www.w3.org/2000/svg"
 width="157.000000pt" height="149.000000pt" viewBox="0 0 157.000000 149.000000"
 preserveAspectRatio="xMidYMid meet">
<metadata>
Created by potrace 1.10, written by Peter Selinger 2001-2011
</metadata>
<g transform="translate(0.000000,149.000000) scale(0.100000,-0.100000)"
fill="#2b2f7f" stroke="none">
<path d="M175 1381 c-11 -5 -29 -19 -40 -31 -20 -22 -20 -36 -20 -601 l0 -579
28 -27 27 -28 306 0 306 0 24 30 c18 23 24 42 24 84 0 50 1 53 23 47 31 -7 85
27 101 66 l13 31 155 0 c138 -1 158 -3 189 -22 50 -31 85 -27 125 13 29 29 34
41 34 80 0 29 4 46 12 46 19 0 -32 48 -57 54 -18 5 -25 15 -30 48 -4 24 -17
61 -28 83 -16 30 -20 55 -18 98 l3 57 -50 0 c-28 0 -54 -4 -57 -10 -4 -6 -15
-4 -30 6 -23 15 -45 12 -45 -5 0 -5 14 -14 30 -21 18 -7 30 -20 30 -31 0 -10
5 -21 10 -24 6 -3 10 -48 10 -100 0 -87 -2 -96 -22 -109 -68 -44 -128 -23
-128 43 0 50 -33 95 -66 88 l-24 -4 0 143 0 144 -90 0 -90 0 0 188 c0 201 -3
213 -57 241 -26 13 -566 15 -598 2z m570 -31 c19 -6 40 -20 45 -30 15 -28 13
-1102 -1 -1134 -20 -43 -57 -48 -338 -44 -238 3 -261 5 -280 22 -21 19 -21 22
-21 586 0 527 1 568 18 582 9 9 23 17 30 19 35 11 515 10 547 -1z m105 -482
c0 -36 4 -48 15 -48 11 0 15 12 15 50 l0 50 50 0 50 0 0 -120 0 -120 -75 0
-75 0 0 133 c0 89 3 127 10 117 5 -8 10 -36 10 -62z m473 -88 c4 -17 0 -20
-29 -20 -27 0 -34 4 -34 20 0 15 7 20 29 20 20 0 30 -6 34 -20z m-5 -78 c26
-36 56 -127 48 -147 -3 -8 -14 -15 -24 -15 -27 0 -59 -37 -45 -51 8 -8 18 -5
34 10 23 22 73 28 97 12 10 -6 -11 -22 -71 -55 l-85 -46 -221 -4 -221 -3 0 80
0 80 42 -6 c50 -7 88 -33 108 -75 16 -33 40 -43 40 -17 0 9 -12 33 -26 55 -20
30 -39 45 -75 57 -26 10 -50 24 -53 33 -3 8 -9 21 -12 29 -5 10 12 12 91 10
110 -4 125 -14 125 -81 0 -66 57 -101 130 -79 64 19 80 49 80 152 0 49 4 89 9
89 5 0 19 -12 29 -28z m-481 -109 c-2 -16 -4 -3 -4 27 0 30 2 43 4 28 2 -16 2
-40 0 -55z m599 -177 c-19 -47 -54 -63 -96 -46 -16 7 -30 16 -30 20 0 13 124
78 133 70 5 -4 2 -24 -7 -44z m-506 -47 c0 -22 -21 -47 -47 -56 -40 -14 -53
-6 -53 33 l0 34 50 0 c29 0 50 -5 50 -11z"/>
<path d="M390 1285 c0 -12 15 -15 75 -15 60 0 75 3 75 15 0 12 -15 15 -75 15
-60 0 -75 -3 -75 -15z"/>
<path d="M410 1015 c-113 -51 -145 -162 -82 -280 34 -64 142 -215 154 -215 12
0 127 163 158 224 36 70 38 122 10 182 -41 83 -156 126 -240 89z m139 -43 c47
-23 72 -61 78 -114 6 -52 -12 -93 -90 -205 -37 -53 -54 -70 -63 -63 -21 18
-104 147 -125 196 -24 53 -20 97 13 139 49 63 121 81 187 47z"/>
<path d="M360 485 c0 -36 0 -36 -35 -29 -31 5 -35 4 -35 -15 0 -20 4 -20 95
-17 l95 4 0 -34 c0 -24 5 -34 15 -34 10 0 15 10 15 33 l0 32 65 0 c45 0 65 -4
65 -12 0 -7 7 -13 15 -13 11 0 15 11 15 40 0 29 -4 40 -15 40 -8 0 -15 -6 -15
-12 0 -10 -32 -13 -125 -13 l-125 0 0 32 c0 23 -5 33 -15 33 -11 0 -15 -11
-15 -35z"/>
<path d="M436 294 c-9 -8 -16 -22 -16 -29 0 -18 27 -45 45 -45 18 0 45 27 45
45 0 18 -27 45 -45 45 -7 0 -21 -7 -29 -16z"/>
</g>
</svg>
