<?xml version="1.0" standalone="no"?>
<!DOCTYPE svg PUBLIC "-//W3C//DTD SVG 20010904//EN"
 "http://www.w3.org/TR/2001/REC-SVG-20010904/DTD/svg10.dtd">
<svg version="1.0" xmlns="http://www.w3.org/2000/svg"
 width="100.000000pt" height="120.000000pt" viewBox="0 0 100.000000 120.000000"
 preserveAspectRatio="xMidYMid meet">
<metadata>
Created by potrace 1.10, written by Peter Selinger 2001-2011
</metadata>
<g transform="translate(0.000000,120.000000) scale(0.100000,-0.100000)"
fill="#2b2f7f" stroke="none">
<path d="M148 1081 l-33 -29 0 -422 0 -422 33 -29 32 -29 226 0 226 0 29 29
c16 17 29 40 29 54 0 20 11 31 53 55 118 66 187 201 187 364 0 62 -14 88 -45
88 -34 0 -121 36 -161 66 l-34 26 0 110 c0 108 0 110 -29 139 l-29 29 -226 0
-226 0 -32 -29z m484 -28 c15 -14 18 -32 18 -130 l0 -113 -32 -20 c-18 -11
-58 -27 -88 -36 -87 -25 -85 -23 -88 -104 -6 -139 51 -261 159 -342 57 -43 64
-64 32 -100 -14 -16 -39 -18 -230 -18 -200 0 -214 1 -233 20 -19 19 -20 33
-20 420 0 387 1 401 20 420 19 19 33 20 232 20 183 0 214 -2 230 -17z m148
-325 c19 -8 52 -18 73 -22 37 -7 37 -7 37 -56 0 -147 -68 -277 -173 -332 l-39
-19 -40 27 c-95 66 -149 166 -156 290 l-4 81 47 12 c52 13 140 55 150 71 4 6
19 1 38 -14 18 -13 48 -31 67 -38z"/>
<path d="M357 1044 c-4 -4 -7 -13 -7 -21 0 -9 18 -13 66 -13 57 0 65 2 62 18
-2 13 -15 18 -58 20 -31 2 -59 0 -63 -4z"/>
<path d="M283 697 c-3 -5 -1 -12 5 -16 6 -4 -4 -16 -24 -30 -34 -24 -45 -51
-21 -51 8 0 24 11 37 25 14 15 30 23 39 20 16 -6 31 11 31 36 0 19 -57 32 -67
16z"/>
<path d="M310 514 c0 -86 2 -95 18 -92 14 3 17 17 20 96 3 87 2 92 -18 92 -19
0 -20 -6 -20 -96z"/>
<path d="M251 546 c-7 -8 -11 -37 -9 -68 2 -41 7 -54 21 -56 15 -3 17 5 17 62
0 67 -9 86 -29 62z"/>
<path d="M387 274 c-23 -23 7 -69 37 -58 25 10 17 58 -9 62 -12 2 -24 0 -28
-4z"/>
<path d="M654 699 c-49 -14 -77 -52 -85 -117 -7 -60 -4 -76 12 -67 5 4 9 28 9
55 0 68 35 110 92 110 30 0 46 -7 69 -29 24 -25 29 -38 29 -80 0 -27 5 -53 10
-56 6 -4 10 17 10 54 0 52 -4 65 -27 91 -33 36 -76 50 -119 39z"/>
<path d="M650 657 c-14 -7 -30 -24 -36 -37 -16 -35 -24 -142 -10 -137 6 2 13
31 16 65 6 69 26 102 64 102 37 0 66 -43 66 -99 0 -48 21 -94 34 -73 3 6 2 13
-4 17 -5 3 -10 24 -10 46 0 56 -24 107 -55 119 -33 13 -35 12 -65 -3z"/>
<path d="M658 619 c-14 -8 -18 -23 -18 -64 0 -60 15 -82 61 -92 16 -3 32 -10
35 -14 3 -5 10 -7 15 -3 15 9 -10 34 -35 34 -42 0 -58 21 -54 75 3 42 6 50 23
50 16 0 21 -8 23 -37 2 -24 -1 -38 -9 -38 -7 0 -9 10 -7 25 3 14 1 28 -3 31
-5 3 -9 -13 -9 -36 0 -37 2 -41 23 -38 18 2 23 10 25 44 4 60 -27 88 -70 63z"/>
<path d="M600 460 c0 -5 8 -10 19 -10 10 0 35 -7 56 -16 26 -10 41 -12 48 -5
7 7 6 12 -4 14 -8 2 -30 9 -50 16 -44 14 -69 14 -69 1z"/>
</g>
</svg>
