<?xml version="1.0" standalone="no"?>
<!DOCTYPE svg PUBLIC "-//W3C//DTD SVG 20010904//EN"
 "http://www.w3.org/TR/2001/REC-SVG-20010904/DTD/svg10.dtd">
<svg version="1.0" xmlns="http://www.w3.org/2000/svg"
 width="197.000000pt" height="93.000000pt" viewBox="0 0 197.000000 93.000000"
 preserveAspectRatio="xMidYMid meet">
<metadata>
Created by potrace 1.10, written by Peter Selinger 2001-2011
</metadata>
<g transform="translate(0.000000,93.000000) scale(0.100000,-0.100000)"
fill="#2b2f7f" stroke="none">
<path d="M862 738 c2 -84 6 -103 18 -103 12 0 16 17 18 83 l3 82 264 0 265 0
0 -267 0 -268 -95 3 c-94 4 -95 4 -95 -20 l0 -23 143 0 142 0 0 23 c0 20 -4
23 -27 20 l-28 -5 0 219 0 218 91 0 91 0 79 -66 79 -66 0 -148 0 -149 -27 -3
c-17 -2 -28 -9 -28 -18 0 -11 13 -16 48 -18 l47 -3 0 180 0 179 -91 76 -91 76
-99 0 -99 0 0 50 0 50 -305 0 -306 0 3 -102z"/>
<path d="M1520 525 l0 -115 115 0 115 0 0 73 c0 73 0 73 -43 115 -42 42 -44
42 -115 42 l-72 0 0 -115z m157 43 c27 -26 33 -39 33 -75 l0 -43 -75 0 -75 0
0 75 0 75 42 0 c34 0 49 -6 75 -32z"/>
<path d="M253 603 c-3 -7 -3 -55 -1 -108 l3 -95 -63 0 -63 0 3 -112 c3 -98 5
-113 21 -116 15 -3 17 6 17 92 l0 96 110 0 110 0 0 -94 c0 -89 1 -95 20 -93
18 1 20 8 20 94 l0 93 110 0 110 0 0 -94 c0 -89 1 -95 20 -93 19 1 20 8 20
114 l0 113 -70 0 -70 0 0 108 0 107 -146 0 c-106 0 -148 -3 -151 -12z m257
-113 l0 -90 -110 0 -110 0 0 90 0 90 110 0 110 0 0 -90z"/>
<path d="M847 604 c-4 -4 -7 -13 -7 -21 0 -10 33 -13 161 -13 147 0 160 1 157
18 -3 15 -20 17 -154 20 -82 1 -153 -1 -157 -4z"/>
<path d="M792 492 c-2 -7 -2 -16 2 -19 4 -5 253 -7 309 -4 4 1 7 8 7 16 0 8
-3 15 -7 15 -5 1 -75 2 -157 3 -114 2 -150 -1 -154 -11z"/>
<path d="M736 385 c-3 -9 0 -18 7 -21 7 -2 80 -3 162 -2 125 3 150 5 150 18 0
23 -310 28 -319 5z"/>
<path d="M867 344 c-4 -4 -7 -33 -7 -64 l0 -57 48 2 c26 2 50 4 55 4 13 2 8
29 -7 34 -8 3 -23 3 -34 0 -18 -4 -21 0 -24 38 -3 40 -16 58 -31 43z"/>
<path d="M1063 275 c-88 -38 -64 -175 32 -175 49 0 74 15 91 56 20 48 -1 99
-50 119 -41 18 -33 18 -73 0z m57 -35 c46 -25 45 -76 -1 -100 -16 -9 -26 -8
-43 4 -35 22 -39 54 -11 82 27 27 29 28 55 14z"/>
<path d="M1623 278 c-98 -26 -79 -178 22 -178 49 0 74 15 91 57 14 31 13 38
-3 71 -22 44 -64 63 -110 50z m47 -38 c46 -25 45 -76 -1 -100 -53 -29 -96 60
-47 94 27 19 24 19 48 6z"/>
<path d="M130 130 c0 -20 7 -20 284 -20 279 0 284 0 279 20 -5 19 -14 20 -284
20 -272 0 -279 0 -279 -20z"/>
</g>
</svg>
