<?xml version="1.0" standalone="no"?>
<!DOCTYPE svg PUBLIC "-//W3C//DTD SVG 20010904//EN"
 "http://www.w3.org/TR/2001/REC-SVG-20010904/DTD/svg10.dtd">
<svg version="1.0" xmlns="http://www.w3.org/2000/svg"
 width="101.000000pt" height="132.000000pt" viewBox="0 0 101.000000 132.000000"
 preserveAspectRatio="xMidYMid meet">
<metadata>
Created by potrace 1.10, written by Peter Selinger 2001-2011
</metadata>
<g transform="translate(0.000000,132.000000) scale(0.100000,-0.100000)"
fill="#2b2f7f" stroke="none">
<path d="M253 1313 c142 -2 372 -2 510 0 139 1 23 2 -258 2 -280 0 -394 -1
-252 -2z"/>
<path d="M171 1156 c-50 -28 -50 -33 -51 -463 0 -291 3 -409 12 -428 21 -46
54 -55 198 -55 123 0 130 1 130 20 0 19 -7 20 -133 20 -117 0 -136 2 -150 18
-15 17 -17 61 -17 424 0 380 1 406 18 421 16 15 48 17 234 17 195 0 216 -2
231 -18 15 -16 17 -47 17 -220 0 -195 1 -202 20 -202 19 0 20 7 20 200 0 216
-5 242 -51 266 -39 20 -442 20 -478 0z"/>
<path d="M355 1100 c-13 -21 12 -31 71 -28 44 2 59 7 59 18 0 19 -119 28 -130
10z"/>
<path d="M300 645 c-19 -23 5 -45 50 -45 l37 0 63 -147 c34 -82 66 -150 70
-153 4 -3 7 -16 6 -29 0 -13 7 -28 17 -35 24 -15 52 5 50 35 -1 23 1 24 78 25
62 0 76 -2 68 -12 -14 -17 6 -54 30 -54 27 0 41 22 38 60 l-2 32 -132 -1
c-123 -2 -133 -1 -143 18 -10 20 -7 21 142 23 l153 3 41 100 c30 72 39 105 32
118 -8 15 -29 17 -223 17 l-214 0 -16 30 c-15 28 -19 30 -74 30 -40 0 -63 -5
-71 -15z m114 -20 c8 -8 18 -24 21 -35 6 -19 15 -20 224 -20 l218 0 -36 -90
-36 -90 -148 0 -148 0 -15 38 c-9 20 -33 74 -54 119 -37 79 -39 82 -77 86
l-38 4 37 1 c21 1 43 -4 52 -13z"/>
<path d="M277 554 c-14 -15 7 -24 54 -24 37 0 49 4 49 15 0 11 -12 15 -48 15
-27 0 -52 -3 -55 -6z"/>
<path d="M319 489 c-25 -15 5 -31 52 -27 31 2 44 7 44 18 0 17 -72 24 -96 9z"/>
<path d="M391 321 c-8 -15 -7 -23 5 -35 21 -22 56 -3 52 27 -4 30 -43 35 -57
8z"/>
</g>
</svg>
