<?xml version="1.0" standalone="no"?>
<!DOCTYPE svg PUBLIC "-//W3C//DTD SVG 20010904//EN"
 "http://www.w3.org/TR/2001/REC-SVG-20010904/DTD/svg10.dtd">
<svg version="1.0" xmlns="http://www.w3.org/2000/svg"
 width="166.000000pt" height="127.000000pt" viewBox="0 0 166.000000 127.000000"
 preserveAspectRatio="xMidYMid meet">
<metadata>
Created by potrace 1.10, written by Peter Selinger 2001-2011
</metadata>
<g transform="translate(0.000000,127.000000) scale(0.100000,-0.100000)"
fill="#292d75" stroke="none">
<path d="M178 1139 c-56 -21 -59 -43 -56 -434 l3 -355 26 -25 26 -26 476 1
477 0 0 -80 c0 -119 2 -120 189 -120 l150 0 21 27 c20 26 21 35 18 304 -3 247
-5 279 -20 296 -16 17 -18 42 -18 191 0 166 -1 172 -24 199 l-24 28 -609 2
c-380 1 -618 -2 -635 -8z m1246 -51 c13 -18 16 -54 16 -180 l0 -158 -130 0
c-126 0 -132 -1 -155 -25 -25 -24 -25 -26 -25 -210 l0 -185 -467 0 c-420 0
-468 2 -485 17 -17 15 -18 40 -18 374 0 312 2 360 16 373 14 14 84 16 624 16
l609 0 15 -22z m41 -663 l0 -280 -145 0 -145 0 -3 270 c-1 148 0 276 3 283 3
10 38 12 147 10 l143 -3 0 -280z"/>
<path d="M453 1033 c-13 -2 -32 -16 -43 -30 -19 -24 -20 -40 -20 -278 l0 -252
25 -27 24 -26 256 0 c241 0 256 1 275 20 11 11 22 30 25 42 3 13 5 132 3 265
-3 237 -4 243 -26 265 -22 23 -27 23 -260 24 -130 1 -247 0 -259 -3z m504 -50
c10 -12 13 -79 13 -253 0 -197 -3 -239 -16 -258 -15 -22 -18 -22 -259 -22
-241 0 -244 0 -259 22 -13 19 -16 61 -16 258 0 238 3 261 37 271 7 2 120 3
250 2 212 -2 239 -4 250 -20z"/>
<path d="M510 730 l0 -232 36 21 c34 20 37 20 63 5 25 -15 31 -15 56 -1 26 13
33 13 61 0 29 -14 34 -14 54 0 21 15 26 14 61 -4 l39 -19 0 229 0 230 -36 -21
c-34 -20 -37 -20 -65 -4 -27 16 -30 16 -54 0 -24 -16 -29 -16 -60 -1 -28 14
-35 14 -51 2 -26 -20 -41 -18 -75 6 l-29 20 0 -231z m160 166 c21 -12 29 -12
54 1 26 14 32 14 56 0 17 -10 31 -13 40 -7 8 6 18 10 23 10 4 0 7 -79 7 -175
l0 -175 -24 11 c-18 9 -29 8 -48 -5 -24 -15 -28 -15 -55 1 -29 16 -32 16 -57
0 -24 -16 -29 -16 -56 -2 -23 12 -35 13 -50 5 -20 -10 -20 -7 -20 165 0 96 4
175 8 175 4 0 13 -5 19 -11 8 -8 17 -7 34 5 28 19 37 19 69 2z"/>
<path d="M560 845 c0 -13 19 -15 132 -13 94 2 133 7 136 16 3 9 -28 12 -132
12 -115 0 -136 -2 -136 -15z"/>
<path d="M700 773 c-51 -65 20 -150 93 -112 30 16 37 28 37 71 0 44 -27 68
-76 68 -24 0 -39 -8 -54 -27z m106 -22 c25 -49 -26 -98 -74 -72 -30 16 -37 48
-17 77 22 33 74 31 91 -5z"/>
<path d="M745 760 c20 -9 20 -9 0 -10 -20 -1 -20 -1 0 -9 19 -8 19 -9 1 -12
-17 -4 -17 -5 3 -29 11 -14 20 -20 21 -14 0 5 -5 15 -11 21 -8 8 -4 15 12 27
15 10 18 16 9 16 -13 0 -13 2 0 10 11 7 6 10 -20 9 -29 0 -31 -2 -15 -9z"/>
<path d="M560 775 c0 -13 10 -15 50 -13 67 4 69 22 3 26 -43 2 -53 0 -53 -13z"/>
<path d="M565 700 c-12 -19 5 -28 50 -28 47 0 68 14 44 29 -19 12 -86 11 -94
-1z"/>
<path d="M563 618 c3 -10 38 -13 132 -13 94 0 129 3 133 13 3 9 -28 12 -133
12 -105 0 -136 -3 -132 -12z"/>
<path d="M210 726 c0 -35 4 -46 16 -46 12 0 14 9 12 42 -4 59 -28 63 -28 4z"/>
<path d="M1283 668 c-10 -17 10 -28 48 -28 32 0 40 3 37 16 -2 12 -14 17 -41
18 -22 1 -41 -2 -44 -6z"/>
<path d="M1220 435 c0 -116 1 -125 18 -117 20 10 162 10 179 -1 8 -5 11 26 12
118 1 69 -1 125 -4 125 -3 0 -14 -6 -25 -12 -15 -10 -22 -10 -31 -1 -9 9 -16
9 -30 0 -14 -9 -21 -9 -30 0 -9 9 -16 9 -30 0 -14 -9 -21 -9 -31 1 -6 6 -16
12 -20 12 -4 0 -8 -56 -8 -125z m190 3 c0 -84 -1 -88 -22 -90 -67 -4 -96 -4
-120 0 l-28 5 0 86 0 86 85 0 85 0 0 -87z"/>
<path d="M1255 500 c-4 -6 22 -10 70 -10 48 0 74 4 70 10 -3 6 -35 10 -70 10
-35 0 -67 -4 -70 -10z"/>
<path d="M1338 469 c-38 -22 -9 -85 32 -71 32 11 39 42 14 66 -18 19 -23 19
-46 5z m42 -14 c14 -17 6 -50 -10 -40 -6 4 -8 15 -5 26 4 11 2 19 -5 19 -8 0
-10 -10 -8 -25 6 -27 -9 -35 -18 -10 -6 15 11 45 26 45 4 0 13 -7 20 -15z"/>
<path d="M1250 460 c0 -5 14 -10 30 -10 17 0 30 5 30 10 0 6 -13 10 -30 10
-16 0 -30 -4 -30 -10z"/>
<path d="M1255 420 c-4 -6 7 -10 25 -10 18 0 29 4 25 10 -3 6 -15 10 -25 10
-10 0 -22 -4 -25 -10z"/>
<path d="M1255 380 c-4 -6 25 -10 71 -10 43 0 75 2 73 4 -10 9 -139 14 -144 6z"/>
<path d="M1310 200 c0 -13 7 -20 20 -20 13 0 20 7 20 20 0 13 -7 20 -20 20
-13 0 -20 -7 -20 -20z"/>
</g>
</svg>
